<svg width="256" height="256" viewBox="0 0 256 256" fill="none" xmlns="http://www.w3.org/2000/svg">
<rect width="256" height="256" fill="white"/>
<path d="M45.9647 211.454L49.3587 210.882L55.0027 220.949C55.1807 221.255 55.384 221.496 55.6129 221.674C55.8671 221.827 56.1595 221.928 56.49 221.979C56.8459 222.005 57.2272 222.017 57.634 222.017H57.9772V223.733H52.3714L45.9647 211.454ZM41.1978 221.636C41.1978 221.712 41.2867 221.776 41.4647 221.827C41.6681 221.852 41.9096 221.89 42.1893 221.941C42.4944 221.966 42.8121 221.992 43.1427 222.017C43.4986 222.017 43.8418 222.017 44.1723 222.017H44.6681V223.733H34.1046V222.017H34.486C35.4012 222.017 36.1639 221.928 36.7741 221.75C37.3842 221.572 37.6893 221.204 37.6893 220.644V199.746C37.6893 199.187 37.3842 198.818 36.7741 198.64C36.1639 198.462 35.4012 198.373 34.486 198.373H34.1046V196.657H45.0494C47.1087 196.657 48.8629 196.988 50.3121 197.649C51.7866 198.284 52.918 199.187 53.7061 200.356C54.4942 201.501 54.8883 202.848 54.8883 204.399C54.8883 205.645 54.6086 206.776 54.0493 207.793C53.5154 208.784 52.74 209.623 51.7231 210.31C50.7316 210.996 49.5239 211.492 48.1002 211.797C47.7697 211.873 47.4265 211.937 47.0706 211.988C46.7146 212.039 46.346 212.077 45.9647 212.102C45.5833 212.128 45.2019 212.14 44.8206 212.14H40.4351V210.157H44.8206C46.2697 210.157 47.4519 209.928 48.3672 209.471C49.3078 208.988 49.9943 208.314 50.4265 207.45C50.8587 206.585 51.0748 205.568 51.0748 204.399C51.0748 203.229 50.846 202.225 50.3883 201.386C49.9307 200.547 49.2443 199.899 48.329 199.441C47.4392 198.984 46.3206 198.755 44.9731 198.755H41.1978V221.636ZM79.8948 214.009C79.8948 215.992 79.4626 217.746 78.5982 219.272C77.7593 220.797 76.5898 221.992 75.0898 222.856C73.5898 223.695 71.8737 224.115 69.9415 224.115C68.0094 224.115 66.2933 223.695 64.7933 222.856C63.2933 221.992 62.1111 220.797 61.2467 219.272C60.4078 217.746 59.9883 215.992 59.9883 214.009C59.9883 212.534 60.2298 211.187 60.7128 209.967C61.1959 208.721 61.8823 207.653 62.7721 206.763C63.6874 205.873 64.7425 205.187 65.9374 204.704C67.1577 204.195 68.4924 203.941 69.9415 203.941C71.3907 203.941 72.7127 204.195 73.9076 204.704C75.1279 205.187 76.183 205.873 77.0728 206.763C77.9881 207.653 78.6872 208.721 79.1703 209.967C79.6533 211.187 79.8948 212.534 79.8948 214.009ZM63.573 214.009C63.573 215.611 63.8272 217.022 64.3357 218.242C64.8441 219.462 65.5687 220.416 66.5094 221.102C67.4755 221.763 68.6195 222.094 69.9415 222.094C71.289 222.094 72.433 221.763 73.3737 221.102C74.3144 220.416 75.0389 219.475 75.5474 218.28C76.0559 217.06 76.3101 215.636 76.3101 214.009C76.3101 212.382 76.0559 210.971 75.5474 209.776C75.0389 208.556 74.3144 207.615 73.3737 206.954C72.433 206.293 71.289 205.962 69.9415 205.962C68.6195 205.962 67.4755 206.293 66.5094 206.954C65.5687 207.615 64.8441 208.556 64.3357 209.776C63.8272 210.971 63.573 212.382 63.573 214.009ZM89.0208 204.323V217.594C89.0208 218.585 89.1224 219.399 89.3258 220.034C89.5292 220.67 89.8724 221.14 90.3555 221.445C90.8385 221.725 91.4741 221.865 92.2622 221.865C93.1012 221.865 93.8893 221.699 94.6266 221.369C95.3639 221.013 96.063 220.505 96.7241 219.844C97.4105 219.183 98.0461 218.369 98.6308 217.403L98.7071 219.805C98.0461 220.746 97.3596 221.534 96.6478 222.17C95.9614 222.805 95.2114 223.288 94.3978 223.619C93.5843 223.949 92.669 224.115 91.6521 224.115C90.4572 224.115 89.4021 223.899 88.4869 223.466C87.5716 223.034 86.8598 222.36 86.3513 221.445C85.8682 220.53 85.6267 219.373 85.6267 217.975V207.755C85.6267 207.195 85.3979 206.814 84.9403 206.611C84.5081 206.382 83.8089 206.191 82.8429 206.039L82.3852 205.962V204.323H89.0208ZM101.338 204.323V220.721C101.338 221.077 101.478 221.356 101.758 221.56C102.038 221.763 102.406 221.903 102.864 221.979C103.347 222.055 103.893 222.094 104.504 222.094H104.618V223.733H98.2876V219.767L97.9444 219.31V207.755C97.9444 207.195 97.7156 206.814 97.258 206.611C96.8003 206.382 96.0758 206.204 95.0842 206.077L94.2453 205.962V204.323H101.338ZM105.689 206.344V204.475H105.879C106.642 204.475 107.29 204.424 107.824 204.323C108.383 204.195 108.803 203.992 109.083 203.712C109.388 203.407 109.54 202.975 109.54 202.416L111.828 204.323H118.235V206.344H105.689ZM112.553 217.288C112.553 218.407 112.693 219.31 112.972 219.996C113.277 220.683 113.697 221.191 114.231 221.521C114.765 221.827 115.375 221.979 116.061 221.979C116.621 221.979 117.129 221.928 117.587 221.827C118.044 221.699 118.426 221.585 118.731 221.483V223.543C118.502 223.644 118.222 223.733 117.892 223.81C117.561 223.911 117.218 223.988 116.862 224.038C116.506 224.089 116.125 224.115 115.718 224.115C114.599 224.115 113.532 223.911 112.515 223.505C111.523 223.098 110.71 222.399 110.074 221.407C109.464 220.416 109.159 219.055 109.159 217.327V204.818L109.502 204.551L109.578 199.022H112.553V217.288ZM124.348 214.161C124.348 215.433 124.501 216.564 124.806 217.555C125.136 218.522 125.594 219.348 126.179 220.034C126.763 220.695 127.45 221.204 128.238 221.56C129.052 221.916 129.929 222.094 130.869 222.094C131.912 222.094 132.802 221.89 133.539 221.483C134.302 221.077 134.95 220.581 135.484 219.996C136.018 219.386 136.463 218.776 136.818 218.166L138.496 219.653C138.013 220.492 137.416 221.255 136.704 221.941C135.992 222.627 135.14 223.161 134.149 223.543C133.183 223.924 132.052 224.115 130.755 224.115C128.899 224.115 127.221 223.708 125.721 222.894C124.221 222.081 123.039 220.924 122.175 219.424C121.31 217.924 120.878 216.144 120.878 214.085C120.878 212.077 121.285 210.322 122.098 208.822C122.912 207.297 124.018 206.102 125.416 205.238C126.814 204.373 128.365 203.941 130.069 203.941C131.467 203.941 132.687 204.17 133.729 204.628C134.772 205.06 135.649 205.721 136.361 206.611C137.098 207.5 137.657 208.619 138.039 209.967C138.42 211.314 138.611 212.89 138.611 214.695H123.586V212.712H136.094L135.026 213.475C135.001 212.204 134.886 211.098 134.683 210.157C134.479 209.217 134.174 208.441 133.768 207.831C133.361 207.195 132.852 206.725 132.242 206.42C131.632 206.115 130.907 205.962 130.069 205.962C129.28 205.962 128.53 206.153 127.819 206.534C127.132 206.89 126.522 207.437 125.988 208.174C125.48 208.886 125.073 209.75 124.768 210.767C124.488 211.759 124.348 212.89 124.348 214.161ZM162.096 215.496V223.733H141.732V222.017H142.114C143.029 222.017 143.791 221.928 144.402 221.75C145.012 221.572 145.317 221.204 145.317 220.644V199.746C145.317 199.187 145.012 198.818 144.402 198.64C143.791 198.462 143.029 198.373 142.114 198.373H141.732V196.657H161.029V203.941H159.007L158.626 200.471C158.55 200.013 158.346 199.657 158.016 199.403C157.685 199.149 157.177 198.984 156.491 198.907C155.804 198.806 154.914 198.755 153.821 198.755H148.825V221.636H154.889C155.702 221.636 156.402 221.61 156.986 221.56C157.596 221.509 158.092 221.42 158.474 221.293C158.855 221.166 159.135 220.988 159.313 220.759C159.516 220.53 159.63 220.238 159.656 219.882L160.075 215.496H162.096ZM147.796 208.937C148.94 208.886 150.033 208.848 151.075 208.822C152.143 208.797 153.185 208.759 154.202 208.708C155.245 208.657 156.274 208.606 157.291 208.556V211.225C156.274 211.149 155.245 211.085 154.202 211.034C153.185 210.983 152.143 210.945 151.075 210.92C150.033 210.869 148.94 210.831 147.796 210.806V208.937ZM179.167 212.026L179.129 213.818C177.857 213.945 176.726 214.111 175.734 214.314C174.743 214.517 173.879 214.759 173.141 215.039C172.429 215.318 171.832 215.649 171.349 216.03C170.891 216.411 170.548 216.856 170.319 217.365C170.09 217.848 169.976 218.382 169.976 218.966C169.976 219.627 170.116 220.199 170.396 220.683C170.675 221.14 171.069 221.496 171.578 221.75C172.086 222.005 172.671 222.132 173.332 222.132C174.222 222.132 175.01 221.928 175.696 221.521C176.408 221.089 177.031 220.492 177.565 219.729C178.099 218.941 178.569 218.038 178.976 217.022L179.09 219.386C178.709 220.327 178.188 221.166 177.527 221.903C176.891 222.615 176.154 223.161 175.315 223.543C174.476 223.924 173.523 224.115 172.455 224.115C171.362 224.115 170.357 223.911 169.442 223.505C168.552 223.098 167.828 222.513 167.268 221.75C166.735 220.962 166.468 220.047 166.468 219.005C166.468 217.962 166.735 217.06 167.268 216.297C167.802 215.509 168.603 214.848 169.671 214.314C170.739 213.755 172.061 213.297 173.637 212.941C175.239 212.56 177.082 212.255 179.167 212.026ZM178.48 223.733V219.691L178.099 219.615V210.31C178.099 209.217 177.946 208.352 177.641 207.717C177.362 207.081 176.942 206.636 176.383 206.382C175.823 206.102 175.124 205.962 174.285 205.962C173.014 205.962 171.972 206.229 171.158 206.763C170.37 207.272 169.722 207.869 169.213 208.556C169.188 208.225 169.213 207.933 169.29 207.678C169.366 207.399 169.48 207.157 169.633 206.954C169.811 206.75 170.001 206.585 170.205 206.458C170.434 206.306 170.675 206.191 170.929 206.115V210.043H167.65V206.191C168.031 205.886 168.54 205.568 169.175 205.238C169.836 204.882 170.624 204.577 171.54 204.323C172.455 204.068 173.459 203.941 174.552 203.941C175.468 203.941 176.332 204.043 177.145 204.246C177.959 204.45 178.696 204.793 179.357 205.276C180.018 205.734 180.54 206.356 180.921 207.145C181.302 207.907 181.493 208.861 181.493 210.005V220.721C181.493 221.077 181.62 221.356 181.874 221.56C182.154 221.763 182.523 221.903 182.98 221.979C183.463 222.055 183.997 222.094 184.582 222.094H184.62V223.733H178.48ZM198.807 218.738C198.807 218.204 198.667 217.759 198.387 217.403C198.108 217.047 197.726 216.742 197.243 216.488C196.786 216.233 196.252 216.017 195.642 215.839C195.031 215.661 194.396 215.496 193.735 215.344C192.947 215.14 192.171 214.911 191.409 214.657C190.646 214.403 189.947 214.06 189.311 213.628C188.676 213.195 188.167 212.661 187.786 212.026C187.404 211.365 187.214 210.526 187.214 209.509C187.214 208.416 187.493 207.45 188.053 206.611C188.612 205.772 189.413 205.123 190.455 204.666C191.498 204.183 192.769 203.941 194.269 203.941C195.413 203.941 196.417 204.03 197.281 204.208C198.146 204.386 198.87 204.615 199.455 204.895C200.04 205.149 200.472 205.39 200.752 205.619V209.661H197.51V206.039C197.79 206.039 198.019 206.089 198.197 206.191C198.4 206.293 198.553 206.433 198.654 206.611C198.756 206.789 198.82 206.992 198.845 207.221C198.896 207.424 198.883 207.653 198.807 207.907C198.527 207.475 198.159 207.119 197.701 206.839C197.243 206.534 196.722 206.318 196.137 206.191C195.578 206.039 194.955 205.962 194.269 205.962C192.921 205.962 191.904 206.255 191.218 206.839C190.557 207.424 190.226 208.174 190.226 209.089C190.226 209.674 190.379 210.157 190.684 210.539C190.989 210.92 191.383 211.238 191.866 211.492C192.375 211.746 192.947 211.962 193.582 212.14C194.218 212.318 194.866 212.496 195.527 212.674C196.29 212.852 197.053 213.081 197.815 213.361C198.578 213.615 199.264 213.945 199.875 214.352C200.51 214.759 201.006 215.28 201.362 215.916C201.743 216.526 201.934 217.314 201.934 218.28C201.934 219.399 201.629 220.403 201.019 221.293C200.409 222.157 199.531 222.844 198.387 223.352C197.269 223.86 195.921 224.115 194.345 224.115C193.125 224.115 192.019 224.013 191.027 223.81C190.061 223.606 189.197 223.352 188.434 223.047C187.671 222.716 186.998 222.36 186.413 221.979V217.67H189.731V222.475C189.375 222.246 189.095 222.03 188.892 221.827C188.688 221.598 188.548 221.382 188.472 221.178C188.396 220.975 188.371 220.759 188.396 220.53C188.421 220.301 188.485 220.072 188.587 219.844C188.993 220.352 189.476 220.772 190.036 221.102C190.621 221.433 191.269 221.687 191.981 221.865C192.693 222.017 193.468 222.094 194.307 222.094C195.248 222.094 196.048 221.966 196.709 221.712C197.37 221.433 197.879 221.051 198.235 220.568C198.616 220.06 198.807 219.449 198.807 218.738ZM208.253 214.161C208.253 215.433 208.406 216.564 208.711 217.555C209.041 218.522 209.499 219.348 210.084 220.034C210.668 220.695 211.355 221.204 212.143 221.56C212.956 221.916 213.833 222.094 214.774 222.094C215.817 222.094 216.706 221.89 217.444 221.483C218.206 221.077 218.855 220.581 219.389 219.996C219.922 219.386 220.367 218.776 220.723 218.166L222.401 219.653C221.918 220.492 221.321 221.255 220.609 221.941C219.897 222.627 219.045 223.161 218.054 223.543C217.088 223.924 215.956 224.115 214.66 224.115C212.804 224.115 211.126 223.708 209.626 222.894C208.126 222.081 206.944 220.924 206.079 219.424C205.215 217.924 204.783 216.144 204.783 214.085C204.783 212.077 205.19 210.322 206.003 208.822C206.817 207.297 207.923 206.102 209.321 205.238C210.719 204.373 212.27 203.941 213.973 203.941C215.372 203.941 216.592 204.17 217.634 204.628C218.677 205.06 219.554 205.721 220.266 206.611C221.003 207.5 221.562 208.619 221.944 209.967C222.325 211.314 222.516 212.89 222.516 214.695H207.49V212.712H219.999L218.931 213.475C218.905 212.204 218.791 211.098 218.588 210.157C218.384 209.217 218.079 208.441 217.672 207.831C217.266 207.195 216.757 206.725 216.147 206.42C215.537 206.115 214.812 205.962 213.973 205.962C213.185 205.962 212.435 206.153 211.723 206.534C211.037 206.89 210.427 207.437 209.893 208.174C209.384 208.886 208.978 209.75 208.673 210.767C208.393 211.759 208.253 212.89 208.253 214.161Z" fill="black"/>
<path d="M106.667 126.72C106.667 129.783 104.183 132.267 101.12 132.267C98.0567 132.267 95.5733 129.783 95.5733 126.72C95.5733 123.657 98.0567 121.173 101.12 121.173C104.183 121.173 106.667 123.657 106.667 126.72Z" fill="#1158BB"/>
<path d="M162.133 126.72C162.133 129.783 159.65 132.267 156.587 132.267C153.523 132.267 151.04 129.783 151.04 126.72C151.04 123.657 153.523 121.173 156.587 121.173C159.65 121.173 162.133 123.657 162.133 126.72Z" fill="#1158BB"/>
<path fill-rule="evenodd" clip-rule="evenodd" d="M156.587 132.267C159.65 132.267 162.133 129.783 162.133 126.72C162.133 123.657 159.65 121.173 156.587 121.173C153.523 121.173 151.04 123.657 151.04 126.72C151.04 129.783 153.523 132.267 156.587 132.267ZM106.667 126.72C106.667 129.783 104.183 132.267 101.12 132.267C98.0567 132.267 95.5733 129.783 95.5733 126.72C95.5733 123.657 98.0567 121.173 101.12 121.173C104.183 121.173 106.667 123.657 106.667 126.72Z" fill="#1158BB"/>
<path fill-rule="evenodd" clip-rule="evenodd" d="M90.4533 23.8933H167.253C173.38 23.8933 178.347 28.86 178.347 34.9867V40.96H188.587C190.001 40.96 191.147 42.1062 191.147 43.52V68.2667C191.147 69.6805 190.001 70.8267 188.587 70.8267H178.347V137.387C178.347 142.933 174.276 147.529 168.96 148.35V157.867C168.96 161.637 165.904 164.693 162.133 164.693H156.16C152.39 164.693 149.333 161.637 149.333 157.867V148.48H108.373V157.867C108.373 161.637 105.317 164.693 101.547 164.693H95.5733C91.8031 164.693 88.7467 161.637 88.7467 157.867V148.35C83.4302 147.529 79.36 142.933 79.36 137.387V70.8267H69.12C67.7061 70.8267 66.56 69.6805 66.56 68.2667V43.52C66.56 42.1062 67.7061 40.96 69.12 40.96H79.36V34.9867C79.36 28.86 84.3267 23.8933 90.4533 23.8933ZM174.933 46.08H82.7733V104.96H89.6L98.1333 94.72H162.133C164.267 94.72 164.267 98.1333 162.133 98.1333H99.84L93.8667 104.96H174.933V46.08ZM101.12 137.387C107.011 137.387 111.787 132.611 111.787 126.72C111.787 120.829 107.011 116.053 101.12 116.053C95.229 116.053 90.4533 120.829 90.4533 126.72C90.4533 132.611 95.229 137.387 101.12 137.387ZM156.587 137.387C162.478 137.387 167.253 132.611 167.253 126.72C167.253 120.829 162.478 116.053 156.587 116.053C150.696 116.053 145.92 120.829 145.92 126.72C145.92 132.611 150.696 137.387 156.587 137.387ZM79.36 46.08H72.5333C72.062 46.08 71.68 46.4621 71.68 46.9333V65.7067C71.68 66.178 72.062 66.56 72.5333 66.56H79.36V46.08ZM178.347 46.08H185.173C185.645 46.08 186.027 46.4621 186.027 46.9333V65.7067C186.027 66.178 185.645 66.56 185.173 66.56H178.347V46.08Z" fill="#1158BB"/>
</svg>
