<svg width="256" height="256" viewBox="0 0 256 256" fill="none" xmlns="http://www.w3.org/2000/svg">
<path fill-rule="evenodd" clip-rule="evenodd" d="M96.7111 164.978C96.7111 173.775 89.3248 180.907 80.2133 180.907C71.1019 180.907 63.7156 173.775 63.7156 164.978C63.7156 156.18 71.1019 149.049 80.2133 149.049C89.3248 149.049 96.7111 156.18 96.7111 164.978ZM175.787 180.907C184.898 180.907 192.284 173.775 192.284 164.978C192.284 156.18 184.898 149.049 175.787 149.049C166.675 149.049 159.289 156.18 159.289 164.978C159.289 173.775 166.675 180.907 175.787 180.907ZM63.7156 63.7156H192.284V117.191H63.7156V63.7156ZM43.2356 56.32V175.787C46.08 187.164 52.9067 194.56 52.9067 194.56V217.884C56.32 225.28 80.7822 226.418 85.3333 217.884V202.524H171.236V217.884C174.649 225.849 196.267 226.418 202.524 217.884V194.56C202.524 194.56 209.351 188.302 213.333 175.787V56.32C211.016 44.7307 206.326 37.9787 193.991 31.2889C169.529 18.022 78.5067 19.9111 61.44 31.2889C49.5263 39.2314 45.2757 44.6792 43.2356 56.32Z" fill="#262626"/>
<path fill-rule="evenodd" clip-rule="evenodd" d="M0 0H256V256H0V0ZM43.2356 175.787V56.32C45.2757 44.6792 49.5263 39.2314 61.44 31.2889C78.5067 19.9111 169.529 18.022 193.991 31.2889C206.326 37.9787 211.016 44.7307 213.333 56.32V175.787C209.351 188.302 202.524 194.56 202.524 194.56V217.884C196.267 226.418 174.649 225.849 171.236 217.884V202.524H85.3333V217.884C80.7822 226.418 56.32 225.28 52.9067 217.884V194.56C52.9067 194.56 46.08 187.164 43.2356 175.787Z" fill="#CACACA"/>
<path d="M63.7156 63.7156H192.284V117.191H63.7156V63.7156Z" fill="#CACACA"/>
<path d="M96.7111 164.978C96.7111 173.775 89.3248 180.907 80.2133 180.907C71.1019 180.907 63.7156 173.775 63.7156 164.978C63.7156 156.18 71.1019 149.049 80.2133 149.049C89.3248 149.049 96.7111 156.18 96.7111 164.978Z" fill="#CACACA"/>
<path d="M192.284 164.978C192.284 173.775 184.898 180.907 175.787 180.907C166.675 180.907 159.289 173.775 159.289 164.978C159.289 156.18 166.675 149.049 175.787 149.049C184.898 149.049 192.284 156.18 192.284 164.978Z" fill="#CACACA"/>
</svg>
